<svg id="Ebene_1" data-name="Ebene 1" xmlns="http://www.w3.org/2000/svg" viewBox="0 0 1300.405 653.0437"><defs><style>.cls-1,.cls-5{fill:#6a7c89;}.cls-2,.cls-6{fill:none;}.cls-2{stroke:#222221;stroke-miterlimit:10;stroke-width:0.75px;}.cls-3{font-size:272.2074px;letter-spacing:0.075em;}.cls-3,.cls-7,.cls-9{fill:#fff;}.cls-3,.cls-7{font-family:CenturyGothic-Bold, Century Gothic;font-weight:700;}.cls-4,.cls-5{letter-spacing:0.055em;}.cls-7{font-size:131.7133px;}.cls-8{fill:#c20e1a;}</style></defs><polygon class="cls-1" points="0 651.623 197.357 303.814 280.575 380.79 488.253 0 658.138 251.374 730.626 210.273 901.357 651.623 0 651.623"/><path class="cls-2" d="M325.2749,126.6772" transform="translate(-41.0749 -78.5169)"/><path class="cls-2" d="M1190.6915,602.0239" transform="translate(-41.0749 -78.5169)"/><text class="cls-3" transform="translate(414.5134 470.4981)">K<tspan class="cls-4" x="189.2158" y="0">A</tspan><tspan class="cls-5" x="405.5518" y="0">TLA</tspan></text><line class="cls-6" x1="345.0766" y1="653.0437" x2="745.6487" y2="653.0437"/><text class="cls-7" transform="translate(329.5847 604.9229)">Technol<tspan class="cls-1" x="497.9121" y="0">ogies</tspan></text><path class="cls-8" d="M891.3992,655.196" transform="translate(-41.0749 -78.5169)"/><path class="cls-9" d="M910.7018,648.3824l13.3813,34.35a36.5362,36.5362,0,0,1-13.1964,2.5383,36.9165,36.9165,0,0,1-13.4044-71.3013Z" transform="translate(-41.0749 -78.5169)"/><path class="cls-1" d="M910.8167,648.4167,918.1481,667.4a17.938,17.938,0,0,1-7.3314,1.5743c-10.4795,0-19.1028-9.28-19.1028-20.558,0-8.2654,4.6318-15.7613,11.7144-18.9581Z" transform="translate(-41.0749 -78.5169)"/></svg>